<mxfile host="app.diagrams.net" modified="2023-09-01T14:40:36.259Z" agent="Mozilla/5.0 (Windows NT 10.0; Win64; x64) AppleWebKit/537.36 (KHTML, like Gecko) Chrome/115.0.0.0 Safari/537.36 OPR/101.0.0.0" etag="UsMN3iYd75z1IohKelo0" version="21.7.1" type="device">
  <diagram name="Page-1" id="I5rG99PTWQeW_gLnPdSg">
    <mxGraphModel dx="2293" dy="1967" grid="1" gridSize="10" guides="1" tooltips="1" connect="1" arrows="1" fold="1" page="1" pageScale="1" pageWidth="827" pageHeight="1169" math="0" shadow="0">
      <root>
        <mxCell id="0" />
        <mxCell id="1" parent="0" />
        <mxCell id="frNu4aBuxq3_bJR9qcoo-8" style="edgeStyle=orthogonalEdgeStyle;rounded=0;orthogonalLoop=1;jettySize=auto;html=1;entryX=0.5;entryY=0;entryDx=0;entryDy=0;" edge="1" parent="1" source="frNu4aBuxq3_bJR9qcoo-1" target="frNu4aBuxq3_bJR9qcoo-2">
          <mxGeometry relative="1" as="geometry">
            <Array as="points">
              <mxPoint x="440" y="210" />
            </Array>
          </mxGeometry>
        </mxCell>
        <mxCell id="frNu4aBuxq3_bJR9qcoo-15" style="edgeStyle=orthogonalEdgeStyle;rounded=0;orthogonalLoop=1;jettySize=auto;html=1;exitX=0;exitY=0.5;exitDx=0;exitDy=0;entryX=0.5;entryY=0;entryDx=0;entryDy=0;" edge="1" parent="1" source="frNu4aBuxq3_bJR9qcoo-1" target="frNu4aBuxq3_bJR9qcoo-10">
          <mxGeometry relative="1" as="geometry" />
        </mxCell>
        <mxCell id="frNu4aBuxq3_bJR9qcoo-17" style="edgeStyle=orthogonalEdgeStyle;rounded=0;orthogonalLoop=1;jettySize=auto;html=1;entryX=0.5;entryY=0;entryDx=0;entryDy=0;" edge="1" parent="1" source="frNu4aBuxq3_bJR9qcoo-1" target="frNu4aBuxq3_bJR9qcoo-16">
          <mxGeometry relative="1" as="geometry" />
        </mxCell>
        <mxCell id="frNu4aBuxq3_bJR9qcoo-29" style="edgeStyle=orthogonalEdgeStyle;rounded=0;orthogonalLoop=1;jettySize=auto;html=1;entryX=0.5;entryY=0;entryDx=0;entryDy=0;" edge="1" parent="1" source="frNu4aBuxq3_bJR9qcoo-1" target="frNu4aBuxq3_bJR9qcoo-24">
          <mxGeometry relative="1" as="geometry" />
        </mxCell>
        <mxCell id="frNu4aBuxq3_bJR9qcoo-32" style="edgeStyle=orthogonalEdgeStyle;rounded=0;orthogonalLoop=1;jettySize=auto;html=1;entryX=0.5;entryY=0;entryDx=0;entryDy=0;" edge="1" parent="1" source="frNu4aBuxq3_bJR9qcoo-1" target="frNu4aBuxq3_bJR9qcoo-30">
          <mxGeometry relative="1" as="geometry">
            <mxPoint x="610" y="210" as="targetPoint" />
          </mxGeometry>
        </mxCell>
        <mxCell id="frNu4aBuxq3_bJR9qcoo-1" value="GameManager" style="rounded=1;whiteSpace=wrap;html=1;fillColor=#dae8fc;strokeColor=#6c8ebf;" vertex="1" parent="1">
          <mxGeometry x="210" y="180" width="120" height="60" as="geometry" />
        </mxCell>
        <mxCell id="frNu4aBuxq3_bJR9qcoo-9" style="edgeStyle=orthogonalEdgeStyle;rounded=0;orthogonalLoop=1;jettySize=auto;html=1;" edge="1" parent="1" source="frNu4aBuxq3_bJR9qcoo-2">
          <mxGeometry relative="1" as="geometry">
            <mxPoint x="330" y="210" as="targetPoint" />
            <Array as="points">
              <mxPoint x="440" y="210" />
            </Array>
          </mxGeometry>
        </mxCell>
        <mxCell id="frNu4aBuxq3_bJR9qcoo-2" value="Character Controller" style="rounded=1;whiteSpace=wrap;html=1;fillColor=#dae8fc;strokeColor=#6c8ebf;" vertex="1" parent="1">
          <mxGeometry x="380" y="280" width="120" height="60" as="geometry" />
        </mxCell>
        <mxCell id="frNu4aBuxq3_bJR9qcoo-14" style="edgeStyle=orthogonalEdgeStyle;rounded=0;orthogonalLoop=1;jettySize=auto;html=1;entryX=0;entryY=0.5;entryDx=0;entryDy=0;" edge="1" parent="1" source="frNu4aBuxq3_bJR9qcoo-10" target="frNu4aBuxq3_bJR9qcoo-1">
          <mxGeometry relative="1" as="geometry">
            <Array as="points">
              <mxPoint x="90" y="210" />
            </Array>
          </mxGeometry>
        </mxCell>
        <mxCell id="frNu4aBuxq3_bJR9qcoo-10" value="User Interface&amp;nbsp;&lt;br&gt;Controller" style="rounded=1;whiteSpace=wrap;html=1;" vertex="1" parent="1">
          <mxGeometry x="30" y="280" width="120" height="60" as="geometry" />
        </mxCell>
        <mxCell id="frNu4aBuxq3_bJR9qcoo-20" style="edgeStyle=orthogonalEdgeStyle;rounded=0;orthogonalLoop=1;jettySize=auto;html=1;entryX=0.5;entryY=0;entryDx=0;entryDy=0;" edge="1" parent="1" source="frNu4aBuxq3_bJR9qcoo-16" target="frNu4aBuxq3_bJR9qcoo-18">
          <mxGeometry relative="1" as="geometry" />
        </mxCell>
        <mxCell id="frNu4aBuxq3_bJR9qcoo-21" style="edgeStyle=orthogonalEdgeStyle;rounded=0;orthogonalLoop=1;jettySize=auto;html=1;entryX=0.5;entryY=0;entryDx=0;entryDy=0;" edge="1" parent="1" source="frNu4aBuxq3_bJR9qcoo-16" target="frNu4aBuxq3_bJR9qcoo-19">
          <mxGeometry relative="1" as="geometry" />
        </mxCell>
        <mxCell id="frNu4aBuxq3_bJR9qcoo-16" value="Attack Controller" style="rounded=1;whiteSpace=wrap;html=1;" vertex="1" parent="1">
          <mxGeometry x="-120" y="280" width="120" height="60" as="geometry" />
        </mxCell>
        <mxCell id="frNu4aBuxq3_bJR9qcoo-22" style="edgeStyle=orthogonalEdgeStyle;rounded=0;orthogonalLoop=1;jettySize=auto;html=1;entryX=0.5;entryY=1;entryDx=0;entryDy=0;" edge="1" parent="1" source="frNu4aBuxq3_bJR9qcoo-18" target="frNu4aBuxq3_bJR9qcoo-16">
          <mxGeometry relative="1" as="geometry" />
        </mxCell>
        <mxCell id="frNu4aBuxq3_bJR9qcoo-18" value="Melee Attacks" style="rounded=1;whiteSpace=wrap;html=1;" vertex="1" parent="1">
          <mxGeometry x="-230" y="400" width="120" height="60" as="geometry" />
        </mxCell>
        <mxCell id="frNu4aBuxq3_bJR9qcoo-23" style="edgeStyle=orthogonalEdgeStyle;rounded=0;orthogonalLoop=1;jettySize=auto;html=1;entryX=0.5;entryY=1;entryDx=0;entryDy=0;" edge="1" parent="1" source="frNu4aBuxq3_bJR9qcoo-19" target="frNu4aBuxq3_bJR9qcoo-16">
          <mxGeometry relative="1" as="geometry" />
        </mxCell>
        <mxCell id="frNu4aBuxq3_bJR9qcoo-19" value="Ranged Attacks" style="rounded=1;whiteSpace=wrap;html=1;" vertex="1" parent="1">
          <mxGeometry x="-30" y="400" width="120" height="60" as="geometry" />
        </mxCell>
        <mxCell id="frNu4aBuxq3_bJR9qcoo-27" style="edgeStyle=orthogonalEdgeStyle;rounded=0;orthogonalLoop=1;jettySize=auto;html=1;entryX=0;entryY=0.5;entryDx=0;entryDy=0;" edge="1" parent="1" source="frNu4aBuxq3_bJR9qcoo-24" target="frNu4aBuxq3_bJR9qcoo-1">
          <mxGeometry relative="1" as="geometry">
            <Array as="points">
              <mxPoint x="-270" y="210" />
            </Array>
          </mxGeometry>
        </mxCell>
        <mxCell id="frNu4aBuxq3_bJR9qcoo-24" value="Save/Load Manager" style="rounded=1;whiteSpace=wrap;html=1;" vertex="1" parent="1">
          <mxGeometry x="-330" y="280" width="120" height="60" as="geometry" />
        </mxCell>
        <mxCell id="frNu4aBuxq3_bJR9qcoo-31" style="edgeStyle=orthogonalEdgeStyle;rounded=0;orthogonalLoop=1;jettySize=auto;html=1;entryX=1;entryY=0.5;entryDx=0;entryDy=0;" edge="1" parent="1" source="frNu4aBuxq3_bJR9qcoo-30" target="frNu4aBuxq3_bJR9qcoo-1">
          <mxGeometry relative="1" as="geometry">
            <Array as="points">
              <mxPoint x="610" y="210" />
            </Array>
          </mxGeometry>
        </mxCell>
        <mxCell id="frNu4aBuxq3_bJR9qcoo-30" value="AI Manager" style="rounded=1;whiteSpace=wrap;html=1;" vertex="1" parent="1">
          <mxGeometry x="550" y="280" width="120" height="60" as="geometry" />
        </mxCell>
        <mxCell id="frNu4aBuxq3_bJR9qcoo-33" value="Character" style="swimlane;fontStyle=0;childLayout=stackLayout;horizontal=1;startSize=26;fillColor=none;horizontalStack=0;resizeParent=1;resizeParentMax=0;resizeLast=0;collapsible=1;marginBottom=0;whiteSpace=wrap;html=1;" vertex="1" parent="1">
          <mxGeometry x="274" y="-450" width="140" height="130" as="geometry" />
        </mxCell>
        <mxCell id="frNu4aBuxq3_bJR9qcoo-34" value="Name:String" style="text;strokeColor=none;fillColor=none;align=left;verticalAlign=top;spacingLeft=4;spacingRight=4;overflow=hidden;rotatable=0;points=[[0,0.5],[1,0.5]];portConstraint=eastwest;whiteSpace=wrap;html=1;" vertex="1" parent="frNu4aBuxq3_bJR9qcoo-33">
          <mxGeometry y="26" width="140" height="26" as="geometry" />
        </mxCell>
        <mxCell id="frNu4aBuxq3_bJR9qcoo-35" value="Health: int" style="text;strokeColor=none;fillColor=none;align=left;verticalAlign=top;spacingLeft=4;spacingRight=4;overflow=hidden;rotatable=0;points=[[0,0.5],[1,0.5]];portConstraint=eastwest;whiteSpace=wrap;html=1;" vertex="1" parent="frNu4aBuxq3_bJR9qcoo-33">
          <mxGeometry y="52" width="140" height="26" as="geometry" />
        </mxCell>
        <mxCell id="frNu4aBuxq3_bJR9qcoo-36" value="Speed: int" style="text;strokeColor=none;fillColor=none;align=left;verticalAlign=top;spacingLeft=4;spacingRight=4;overflow=hidden;rotatable=0;points=[[0,0.5],[1,0.5]];portConstraint=eastwest;whiteSpace=wrap;html=1;" vertex="1" parent="frNu4aBuxq3_bJR9qcoo-33">
          <mxGeometry y="78" width="140" height="26" as="geometry" />
        </mxCell>
        <mxCell id="frNu4aBuxq3_bJR9qcoo-38" value="Velocity: Vector2" style="text;strokeColor=none;fillColor=none;align=left;verticalAlign=top;spacingLeft=4;spacingRight=4;overflow=hidden;rotatable=0;points=[[0,0.5],[1,0.5]];portConstraint=eastwest;whiteSpace=wrap;html=1;" vertex="1" parent="frNu4aBuxq3_bJR9qcoo-33">
          <mxGeometry y="104" width="140" height="26" as="geometry" />
        </mxCell>
        <mxCell id="frNu4aBuxq3_bJR9qcoo-40" value="Skeleton" style="swimlane;fontStyle=0;childLayout=stackLayout;horizontal=1;startSize=26;fillColor=none;horizontalStack=0;resizeParent=1;resizeParentMax=0;resizeLast=0;collapsible=1;marginBottom=0;whiteSpace=wrap;html=1;" vertex="1" parent="1">
          <mxGeometry x="490" y="-320" width="140" height="78" as="geometry" />
        </mxCell>
        <mxCell id="frNu4aBuxq3_bJR9qcoo-41" value="Alerted: bool" style="text;strokeColor=none;fillColor=none;align=left;verticalAlign=top;spacingLeft=4;spacingRight=4;overflow=hidden;rotatable=0;points=[[0,0.5],[1,0.5]];portConstraint=eastwest;whiteSpace=wrap;html=1;" vertex="1" parent="frNu4aBuxq3_bJR9qcoo-40">
          <mxGeometry y="26" width="140" height="26" as="geometry" />
        </mxCell>
        <mxCell id="frNu4aBuxq3_bJR9qcoo-42" value="Damage: int" style="text;strokeColor=none;fillColor=none;align=left;verticalAlign=top;spacingLeft=4;spacingRight=4;overflow=hidden;rotatable=0;points=[[0,0.5],[1,0.5]];portConstraint=eastwest;whiteSpace=wrap;html=1;" vertex="1" parent="frNu4aBuxq3_bJR9qcoo-40">
          <mxGeometry y="52" width="140" height="26" as="geometry" />
        </mxCell>
        <mxCell id="frNu4aBuxq3_bJR9qcoo-45" style="edgeStyle=orthogonalEdgeStyle;rounded=0;orthogonalLoop=1;jettySize=auto;html=1;" edge="1" parent="1" source="frNu4aBuxq3_bJR9qcoo-35" target="frNu4aBuxq3_bJR9qcoo-40">
          <mxGeometry relative="1" as="geometry" />
        </mxCell>
        <mxCell id="frNu4aBuxq3_bJR9qcoo-87" style="edgeStyle=orthogonalEdgeStyle;rounded=0;orthogonalLoop=1;jettySize=auto;html=1;entryX=1;entryY=0.5;entryDx=0;entryDy=0;" edge="1" parent="1" source="frNu4aBuxq3_bJR9qcoo-46" target="frNu4aBuxq3_bJR9qcoo-83">
          <mxGeometry relative="1" as="geometry" />
        </mxCell>
        <mxCell id="frNu4aBuxq3_bJR9qcoo-46" value="Player" style="swimlane;fontStyle=0;childLayout=stackLayout;horizontal=1;startSize=26;fillColor=none;horizontalStack=0;resizeParent=1;resizeParentMax=0;resizeLast=0;collapsible=1;marginBottom=0;whiteSpace=wrap;html=1;" vertex="1" parent="1">
          <mxGeometry x="50" y="-310" width="140" height="130" as="geometry" />
        </mxCell>
        <mxCell id="frNu4aBuxq3_bJR9qcoo-47" value="Weapons: Weapon" style="text;strokeColor=none;fillColor=none;align=left;verticalAlign=top;spacingLeft=4;spacingRight=4;overflow=hidden;rotatable=0;points=[[0,0.5],[1,0.5]];portConstraint=eastwest;whiteSpace=wrap;html=1;" vertex="1" parent="frNu4aBuxq3_bJR9qcoo-46">
          <mxGeometry y="26" width="140" height="26" as="geometry" />
        </mxCell>
        <mxCell id="frNu4aBuxq3_bJR9qcoo-48" value="Gold: int" style="text;strokeColor=none;fillColor=none;align=left;verticalAlign=top;spacingLeft=4;spacingRight=4;overflow=hidden;rotatable=0;points=[[0,0.5],[1,0.5]];portConstraint=eastwest;whiteSpace=wrap;html=1;" vertex="1" parent="frNu4aBuxq3_bJR9qcoo-46">
          <mxGeometry y="52" width="140" height="26" as="geometry" />
        </mxCell>
        <mxCell id="frNu4aBuxq3_bJR9qcoo-49" value="Energy: int" style="text;strokeColor=none;fillColor=none;align=left;verticalAlign=top;spacingLeft=4;spacingRight=4;overflow=hidden;rotatable=0;points=[[0,0.5],[1,0.5]];portConstraint=eastwest;whiteSpace=wrap;html=1;" vertex="1" parent="frNu4aBuxq3_bJR9qcoo-46">
          <mxGeometry y="78" width="140" height="26" as="geometry" />
        </mxCell>
        <mxCell id="frNu4aBuxq3_bJR9qcoo-73" value="PowerUp: PowerUp" style="text;strokeColor=none;fillColor=none;align=left;verticalAlign=top;spacingLeft=4;spacingRight=4;overflow=hidden;rotatable=0;points=[[0,0.5],[1,0.5]];portConstraint=eastwest;whiteSpace=wrap;html=1;" vertex="1" parent="frNu4aBuxq3_bJR9qcoo-46">
          <mxGeometry y="104" width="140" height="26" as="geometry" />
        </mxCell>
        <mxCell id="frNu4aBuxq3_bJR9qcoo-51" value="Weapon" style="swimlane;fontStyle=0;childLayout=stackLayout;horizontal=1;startSize=26;fillColor=none;horizontalStack=0;resizeParent=1;resizeParentMax=0;resizeLast=0;collapsible=1;marginBottom=0;whiteSpace=wrap;html=1;" vertex="1" parent="1">
          <mxGeometry x="-340" y="-310" width="140" height="78" as="geometry" />
        </mxCell>
        <mxCell id="frNu4aBuxq3_bJR9qcoo-52" value="Rarity:String" style="text;strokeColor=none;fillColor=none;align=left;verticalAlign=top;spacingLeft=4;spacingRight=4;overflow=hidden;rotatable=0;points=[[0,0.5],[1,0.5]];portConstraint=eastwest;whiteSpace=wrap;html=1;" vertex="1" parent="frNu4aBuxq3_bJR9qcoo-51">
          <mxGeometry y="26" width="140" height="26" as="geometry" />
        </mxCell>
        <mxCell id="frNu4aBuxq3_bJR9qcoo-53" value="Melee: bool" style="text;strokeColor=none;fillColor=none;align=left;verticalAlign=top;spacingLeft=4;spacingRight=4;overflow=hidden;rotatable=0;points=[[0,0.5],[1,0.5]];portConstraint=eastwest;whiteSpace=wrap;html=1;" vertex="1" parent="frNu4aBuxq3_bJR9qcoo-51">
          <mxGeometry y="52" width="140" height="26" as="geometry" />
        </mxCell>
        <mxCell id="frNu4aBuxq3_bJR9qcoo-50" style="edgeStyle=orthogonalEdgeStyle;rounded=0;orthogonalLoop=1;jettySize=auto;html=1;" edge="1" parent="1" source="frNu4aBuxq3_bJR9qcoo-47" target="frNu4aBuxq3_bJR9qcoo-52">
          <mxGeometry relative="1" as="geometry">
            <mxPoint x="-160" y="-271" as="targetPoint" />
          </mxGeometry>
        </mxCell>
        <mxCell id="frNu4aBuxq3_bJR9qcoo-57" style="edgeStyle=orthogonalEdgeStyle;rounded=0;orthogonalLoop=1;jettySize=auto;html=1;exitX=0.439;exitY=1.014;exitDx=0;exitDy=0;exitPerimeter=0;" edge="1" parent="1" source="frNu4aBuxq3_bJR9qcoo-38" target="frNu4aBuxq3_bJR9qcoo-48">
          <mxGeometry relative="1" as="geometry" />
        </mxCell>
        <mxCell id="frNu4aBuxq3_bJR9qcoo-58" value="NPC" style="swimlane;fontStyle=0;childLayout=stackLayout;horizontal=1;startSize=26;fillColor=none;horizontalStack=0;resizeParent=1;resizeParentMax=0;resizeLast=0;collapsible=1;marginBottom=0;whiteSpace=wrap;html=1;" vertex="1" parent="1">
          <mxGeometry x="-50" y="-636" width="140" height="52" as="geometry" />
        </mxCell>
        <mxCell id="frNu4aBuxq3_bJR9qcoo-59" value="QuestList&amp;lt;Quest&amp;gt;" style="text;strokeColor=none;fillColor=none;align=left;verticalAlign=top;spacingLeft=4;spacingRight=4;overflow=hidden;rotatable=0;points=[[0,0.5],[1,0.5]];portConstraint=eastwest;whiteSpace=wrap;html=1;" vertex="1" parent="frNu4aBuxq3_bJR9qcoo-58">
          <mxGeometry y="26" width="140" height="26" as="geometry" />
        </mxCell>
        <mxCell id="frNu4aBuxq3_bJR9qcoo-63" value="Quest" style="swimlane;fontStyle=0;childLayout=stackLayout;horizontal=1;startSize=26;fillColor=none;horizontalStack=0;resizeParent=1;resizeParentMax=0;resizeLast=0;collapsible=1;marginBottom=0;whiteSpace=wrap;html=1;" vertex="1" parent="1">
          <mxGeometry x="-390" y="-584" width="140" height="78" as="geometry" />
        </mxCell>
        <mxCell id="frNu4aBuxq3_bJR9qcoo-64" value="Complete:bool" style="text;strokeColor=none;fillColor=none;align=left;verticalAlign=top;spacingLeft=4;spacingRight=4;overflow=hidden;rotatable=0;points=[[0,0.5],[1,0.5]];portConstraint=eastwest;whiteSpace=wrap;html=1;" vertex="1" parent="frNu4aBuxq3_bJR9qcoo-63">
          <mxGeometry y="26" width="140" height="26" as="geometry" />
        </mxCell>
        <mxCell id="frNu4aBuxq3_bJR9qcoo-65" value="Reward: int" style="text;strokeColor=none;fillColor=none;align=left;verticalAlign=top;spacingLeft=4;spacingRight=4;overflow=hidden;rotatable=0;points=[[0,0.5],[1,0.5]];portConstraint=eastwest;whiteSpace=wrap;html=1;" vertex="1" parent="frNu4aBuxq3_bJR9qcoo-63">
          <mxGeometry y="52" width="140" height="26" as="geometry" />
        </mxCell>
        <mxCell id="frNu4aBuxq3_bJR9qcoo-62" style="edgeStyle=orthogonalEdgeStyle;rounded=0;orthogonalLoop=1;jettySize=auto;html=1;entryX=0.5;entryY=0;entryDx=0;entryDy=0;exitX=0;exitY=0.25;exitDx=0;exitDy=0;" edge="1" parent="1" source="frNu4aBuxq3_bJR9qcoo-58" target="frNu4aBuxq3_bJR9qcoo-63">
          <mxGeometry relative="1" as="geometry">
            <mxPoint x="-210" y="-561.0000000000002" as="targetPoint" />
          </mxGeometry>
        </mxCell>
        <mxCell id="frNu4aBuxq3_bJR9qcoo-67" style="edgeStyle=orthogonalEdgeStyle;rounded=0;orthogonalLoop=1;jettySize=auto;html=1;entryX=0.003;entryY=0.12;entryDx=0;entryDy=0;entryPerimeter=0;" edge="1" parent="1">
          <mxGeometry relative="1" as="geometry">
            <mxPoint x="90" y="-626.32" as="sourcePoint" />
            <mxPoint x="274.4200000000001" y="-463.7200000000001" as="targetPoint" />
          </mxGeometry>
        </mxCell>
        <mxCell id="frNu4aBuxq3_bJR9qcoo-69" value="Merchant" style="swimlane;fontStyle=0;childLayout=stackLayout;horizontal=1;startSize=26;fillColor=none;horizontalStack=0;resizeParent=1;resizeParentMax=0;resizeLast=0;collapsible=1;marginBottom=0;whiteSpace=wrap;html=1;" vertex="1" parent="1">
          <mxGeometry x="-50" y="-530" width="140" height="104" as="geometry" />
        </mxCell>
        <mxCell id="frNu4aBuxq3_bJR9qcoo-70" value="Gold: int" style="text;strokeColor=none;fillColor=none;align=left;verticalAlign=top;spacingLeft=4;spacingRight=4;overflow=hidden;rotatable=0;points=[[0,0.5],[1,0.5]];portConstraint=eastwest;whiteSpace=wrap;html=1;" vertex="1" parent="frNu4aBuxq3_bJR9qcoo-69">
          <mxGeometry y="26" width="140" height="26" as="geometry" />
        </mxCell>
        <mxCell id="frNu4aBuxq3_bJR9qcoo-71" value="Items:List&amp;lt;Item&amp;gt;" style="text;strokeColor=none;fillColor=none;align=left;verticalAlign=top;spacingLeft=4;spacingRight=4;overflow=hidden;rotatable=0;points=[[0,0.5],[1,0.5]];portConstraint=eastwest;whiteSpace=wrap;html=1;" vertex="1" parent="frNu4aBuxq3_bJR9qcoo-69">
          <mxGeometry y="52" width="140" height="26" as="geometry" />
        </mxCell>
        <mxCell id="frNu4aBuxq3_bJR9qcoo-90" value="PowerUp: PowerUp" style="text;strokeColor=none;fillColor=none;align=left;verticalAlign=top;spacingLeft=4;spacingRight=4;overflow=hidden;rotatable=0;points=[[0,0.5],[1,0.5]];portConstraint=eastwest;whiteSpace=wrap;html=1;" vertex="1" parent="frNu4aBuxq3_bJR9qcoo-69">
          <mxGeometry y="78" width="140" height="26" as="geometry" />
        </mxCell>
        <mxCell id="frNu4aBuxq3_bJR9qcoo-82" value="PowerUp" style="swimlane;fontStyle=1;align=center;verticalAlign=top;childLayout=stackLayout;horizontal=1;startSize=26;horizontalStack=0;resizeParent=1;resizeParentMax=0;resizeLast=0;collapsible=1;marginBottom=0;whiteSpace=wrap;html=1;" vertex="1" parent="1">
          <mxGeometry x="-380" y="-440" width="160" height="86" as="geometry" />
        </mxCell>
        <mxCell id="frNu4aBuxq3_bJR9qcoo-83" value="Powers: List&amp;lt;PowerUp&amp;gt;" style="text;strokeColor=none;fillColor=none;align=left;verticalAlign=top;spacingLeft=4;spacingRight=4;overflow=hidden;rotatable=0;points=[[0,0.5],[1,0.5]];portConstraint=eastwest;whiteSpace=wrap;html=1;" vertex="1" parent="frNu4aBuxq3_bJR9qcoo-82">
          <mxGeometry y="26" width="160" height="26" as="geometry" />
        </mxCell>
        <mxCell id="frNu4aBuxq3_bJR9qcoo-84" value="" style="line;strokeWidth=1;fillColor=none;align=left;verticalAlign=middle;spacingTop=-1;spacingLeft=3;spacingRight=3;rotatable=0;labelPosition=right;points=[];portConstraint=eastwest;strokeColor=inherit;" vertex="1" parent="frNu4aBuxq3_bJR9qcoo-82">
          <mxGeometry y="52" width="160" height="8" as="geometry" />
        </mxCell>
        <mxCell id="frNu4aBuxq3_bJR9qcoo-85" value="+ method(type): type" style="text;strokeColor=none;fillColor=none;align=left;verticalAlign=top;spacingLeft=4;spacingRight=4;overflow=hidden;rotatable=0;points=[[0,0.5],[1,0.5]];portConstraint=eastwest;whiteSpace=wrap;html=1;" vertex="1" parent="frNu4aBuxq3_bJR9qcoo-82">
          <mxGeometry y="60" width="160" height="26" as="geometry" />
        </mxCell>
        <mxCell id="frNu4aBuxq3_bJR9qcoo-89" style="edgeStyle=orthogonalEdgeStyle;rounded=0;orthogonalLoop=1;jettySize=auto;html=1;entryX=0.5;entryY=0;entryDx=0;entryDy=0;" edge="1" parent="1" source="frNu4aBuxq3_bJR9qcoo-59" target="frNu4aBuxq3_bJR9qcoo-69">
          <mxGeometry relative="1" as="geometry">
            <Array as="points">
              <mxPoint x="20" y="-570" />
              <mxPoint x="20" y="-570" />
            </Array>
          </mxGeometry>
        </mxCell>
        <mxCell id="frNu4aBuxq3_bJR9qcoo-91" style="edgeStyle=orthogonalEdgeStyle;rounded=0;orthogonalLoop=1;jettySize=auto;html=1;entryX=0.5;entryY=0;entryDx=0;entryDy=0;" edge="1" parent="1" source="frNu4aBuxq3_bJR9qcoo-71" target="frNu4aBuxq3_bJR9qcoo-82">
          <mxGeometry relative="1" as="geometry" />
        </mxCell>
      </root>
    </mxGraphModel>
  </diagram>
</mxfile>
